<svg xmlns="http://www.w3.org/2000/svg" width="480" height="324" viewBox="0 0 480 324" role="presentation">
<defs>
<linearGradient id="g" x1="0" y1="0" x2="0" y2="1">
<stop offset="0" stop-color="hsl(212 16% 95%)"/>
<stop offset="1" stop-color="hsl(212 20% 86%)"/>
</linearGradient>
<radialGradient id="k" cx="0.5" cy="0.42" r="0.62">
<stop offset="0" stop-color="#ffffff" stop-opacity="0.85"/>
<stop offset="1" stop-color="#ffffff" stop-opacity="0"/>
</radialGradient>
</defs>
<rect width="480" height="324" fill="url(#g)"/>
<rect width="480" height="324" fill="url(#k)"/>
<g transform="translate(240 298) scale(1.46) translate(-240 -204)">
<ellipse cx="240" cy="206" rx="70" ry="12" fill="#0c0e18" opacity="0.1"/>
<path d="M200 204V74c0-18 11-25 15-34l7-24h36l7 24c4 9 15 16 15 34v130a14 14 0 0 1-14 14H214a14 14 0 0 1-14-14Z" fill="hsl(212 44% 45%)"/>
    <rect x="218" y="4" width="44" height="34" rx="6" fill="hsl(212 46% 36%)"/>
    <rect x="200" y="112" width="80" height="17" fill="hsl(212 28% 88%)"/>
    <rect x="211" y="78" width="13" height="118" rx="6.5" fill="#ffffff" opacity="0.26"/>
</g>
</svg>
