<svg width="19" height="18" viewBox="0 0 19 18" fill="none" xmlns="http://www.w3.org/2000/svg">
<path d="M5.51759 17.8955C6.34117 17.8955 7.00881 17.2279 7.00881 16.4043C7.00881 15.5807 6.34117 14.9131 5.51759 14.9131C4.69401 14.9131 4.02637 15.5807 4.02637 16.4043C4.02637 17.2279 4.69401 17.8955 5.51759 17.8955Z" fill="#5275c2"/>
<path d="M15.9561 17.8955C16.7796 17.8955 17.4473 17.2279 17.4473 16.4043C17.4473 15.5807 16.7796 14.9131 15.9561 14.9131C15.1325 14.9131 14.4648 15.5807 14.4648 16.4043C14.4648 17.2279 15.1325 17.8955 15.9561 17.8955Z" fill="#5275c2"/>
<path d="M18.603 2.64599C18.4983 2.51786 18.3663 2.41466 18.2167 2.34389C18.0671 2.27312 17.9036 2.23655 17.7381 2.23684H3.55517L3.26951 0.616062C3.23905 0.443419 3.14873 0.28703 3.01442 0.174365C2.8801 0.0616995 2.71039 -3.68339e-05 2.53508 1.64874e-08L0.745612 1.64856e-08C0.547863 1.64856e-08 0.358214 0.0785555 0.218385 0.218385C0.0785553 0.358214 0 0.547863 0 0.745612C0 0.94336 0.0785553 1.13301 0.218385 1.27284C0.358214 1.41267 0.547863 1.49122 0.745612 1.49122H1.9097L2.84451 13.5506C2.87497 13.7232 2.96529 13.8796 3.0996 13.9923C3.23391 14.1049 3.40363 14.1667 3.57894 14.1666H15.5087C15.7065 14.1666 15.8961 14.0881 16.036 13.9482C16.1758 13.8084 16.2543 13.6188 16.2543 13.421C16.2543 13.2233 16.1758 13.0336 16.036 12.8938C15.8961 12.754 15.7065 12.6754 15.5087 12.6754H4.20432L3.94149 11.1842H16.396C16.6546 11.1838 16.9051 11.0942 17.1052 10.9304C17.3052 10.7666 17.4426 10.5387 17.4939 10.2852L18.836 3.57474C18.8684 3.41234 18.8642 3.24478 18.8239 3.08417C18.7836 2.92356 18.7082 2.77389 18.603 2.64599Z" fill="#5275c2"/>
</svg>
